<svg width="22" height="22" viewBox="0 0 22 22" fill="none" xmlns="http://www.w3.org/2000/svg">
<path d="M13.7499 3.02493C12.3121 2.79606 10.8392 2.9518 9.48101 3.47633C8.1228 4.00085 6.92758 4.87548 6.01676 6.01139C5.10594 7.14729 4.51195 8.50401 4.29512 9.94376C4.0783 11.3835 4.24635 12.855 4.78222 14.2088C5.31809 15.5625 6.20269 16.7504 7.34618 17.6517C8.48967 18.553 9.85131 19.1356 11.2928 19.3404C12.7343 19.5451 14.2044 19.3648 15.5536 18.8176C16.9028 18.2704 18.0833 17.3759 18.9749 16.2249C17.2245 16.9178 15.2705 16.8869 13.5429 16.1391C11.8152 15.3913 10.4553 13.9879 9.76245 12.2374C9.06957 10.487 9.10042 8.53302 9.84823 6.80534C10.596 5.07766 11.9995 3.7178 13.7499 3.02493Z" fill="url(#a)"/>
<path d="M16.5004 3.0249L17.2429 4.7574L18.9754 5.4999L17.2429 6.2424L16.5004 7.9749L15.7579 6.2424L14.0254 5.4999L15.7579 4.7574L16.5004 3.0249Z" fill="#FDB022"/>
<defs>
<linearGradient id="a" x1="7.15749" y1="2.92236" x2="17.5353" y2="18.4072" gradientUnits="userSpaceOnUse"><stop stop-color="#B4C5FF"/><stop offset="1" stop-color="#5B5BD6"/></linearGradient>
</defs>
</svg>
